# File created by Blade
# Date/Time:  Wed Jan 21 18:34:41 2015
# Frame Rate: 120.000 fps
#------------------------------------------------------
:FULLY-SPECIFIED
:DEGREES
2041
root 2.454644 32.732938 -6.724265 44.438059 5.214242 1.341243
RightUpLeg -38.529858 -18.005298 9.543522
RightLeg -2.671081 -0.000000 0.000000
RightFoot -9.545505 -1.761859 23.026917
RightToeBase 21.165516 -0.000000 -0.000000
LeftUpLeg -40.584754 10.401887 -3.011358
LeftLeg 0.710644 -0.000000 -0.000000
LeftFoot -3.047706 -8.767883 -15.465280
LeftToeBase 3.498332 -0.000000 -0.000000
Spine -47.396541 1.207896 -2.887385
RightShoulder -19.838067 17.918043 -45.402575
RightArm 0.730742 -12.363236 45.018233
RightForeArm 4.631885 -0.000000 -5.172852
RightHand 8.898685 0.000000 4.054918
RightHandThumb1 -24.326973 -0.000000 -32.862282
LeftShoulder -11.217839 -1.238877 37.952839
LeftArm 29.107823 -13.451386 -49.191225
LeftForeArm 19.626636 -0.000000 -1.827293
LeftHand -26.130825 -0.000000 -3.439900
LeftHandThumb1 -26.253704 0.000000 33.147579
Head -0.263691 -3.358949 6.941825
2042
root 2.458742 32.735093 -6.744564 44.349049 5.272560 1.347843
RightUpLeg -38.499644 -18.048699 9.545262
RightLeg -2.619609 -0.000000 0.000000
RightFoot -9.551507 -1.798569 23.010502
RightToeBase 21.123858 -0.000000 -0.000000
LeftUpLeg -40.557835 10.369945 -2.998260
LeftLeg 0.746641 -0.000000 -0.000000
LeftFoot -3.027234 -8.757016 -15.411485
LeftToeBase 3.481487 -0.000000 -0.000000
Spine -47.397626 1.194493 -2.908003
RightShoulder -19.468991 18.289726 -45.268189
RightArm 1.456118 -12.679065 45.008184
RightForeArm 4.686906 -0.000000 -5.037240
RightHand 9.227079 -0.000000 4.103353
RightHandThumb1 -24.326973 -0.000000 -32.862282
LeftShoulder -10.780958 -1.585613 37.949629
LeftArm 29.971136 -12.887747 -49.096279
LeftForeArm 19.435450 -0.000000 -1.719104
LeftHand -25.957763 -0.000000 -3.526288
LeftHandThumb1 -26.253704 0.000000 33.147579
Head -0.199747 -3.464947 7.009516
2043
root 2.462667 32.737131 -6.763582 44.272370 5.316321 1.361723
RightUpLeg -38.461123 -18.062059 9.512229
RightLeg -2.590078 -0.000000 0.000000
RightFoot -9.600140 -1.890045 22.917439
RightToeBase 21.248094 -0.000000 -0.000000
LeftUpLeg -40.524891 10.320988 -2.977990
LeftLeg 0.763159 -0.000000 -0.000000
LeftFoot -3.003423 -8.729465 -15.405193
LeftToeBase 3.494155 -0.000000 -0.000000
Spine -47.404243 1.154157 -2.914313
RightShoulder -19.100320 18.775837 -45.164242
RightArm 2.144248 -13.017010 45.022757
RightForeArm 4.653015 -0.000000 -4.933436
RightHand 9.458876 0.000000 4.279964
RightHandThumb1 -24.326973 -0.000000 -32.862282
LeftShoulder -10.393381 -1.900242 37.972127
LeftArm 30.918180 -12.515078 -49.151803
LeftForeArm 19.609867 0.000000 -1.718536
LeftHand -25.847896 -0.000000 -3.676971
LeftHandThumb1 -26.253704 0.000000 33.147579
Head -0.135398 -3.495751 7.048341
2044
root 2.464866 32.738660 -6.783045 44.186589 5.371126 1.353602
RightUpLeg -38.412973 -18.064005 9.495783
RightLeg -2.557960 -0.000000 0.000000
RightFoot -9.607720 -1.952516 22.868475
RightToeBase 21.244333 -0.000000 -0.000000
LeftUpLeg -40.492988 10.289043 -2.936864
LeftLeg 0.790394 -0.000000 -0.000000
LeftFoot -2.986917 -8.733214 -15.378929
LeftToeBase 3.512243 -0.000000 -0.000000
Spine -47.411616 1.136184 -2.916876
RightShoulder -18.746216 19.223112 -45.116269
RightArm 2.782695 -13.334242 45.135060
RightForeArm 4.595001 -0.000000 -4.735366
RightHand 9.245983 -0.000000 4.203179
RightHandThumb1 -24.326973 -0.000000 -32.862282
LeftShoulder -9.982380 -2.268568 38.003986
LeftArm 31.821095 -11.970650 -49.132498
LeftForeArm 19.576666 -0.000000 -1.708867
LeftHand -25.673545 -0.000000 -3.811884
LeftHandThumb1 -26.253704 0.000000 33.147579
Head -0.047270 -3.557682 7.105037
2045
root 2.467609 32.740492 -6.803217 44.100142 5.415092 1.356434
RightUpLeg -38.371766 -18.072882 9.473128
RightLeg -2.522385 -0.000000 0.000000
RightFoot -9.605880 -2.008383 22.863210
RightToeBase 21.221095 -0.000000 -0.000000
LeftUpLeg -40.464348 10.263918 -2.917946
LeftLeg 0.822785 -0.000000 -0.000000
LeftFoot -2.959877 -8.727567 -15.374314
LeftToeBase 3.493735 -0.000000 -0.000000
Spine -47.406901 1.107449 -2.921431
RightShoulder -18.369534 19.697294 -45.032906
RightArm 3.417222 -13.676804 45.200273
RightForeArm 4.616357 0.000000 -4.531721
RightHand 9.350344 -0.000000 4.275462
RightHandThumb1 -24.326973 -0.000000 -32.862282
LeftShoulder -9.616820 -2.601916 38.034722
LeftArm 32.747509 -11.311857 -49.063719
LeftForeArm 19.443070 -0.000000 -1.657619
LeftHand -25.566224 -0.000000 -3.980051
LeftHandThumb1 -26.253704 0.000000 33.147579
Head 0.030607 -3.595563 7.143035
